# xmcd
#
# Track frame offsets: 
#        182
#        15350
#        28567
#        43655
#        62510
#        80012
#        92140
#        108625
#        128660
#        143340
#        160777
#        174410
#
# Disc length: 2528 seconds
#
# Revision: 3
# Processed by: cddbd v1.5.1PL0 Copyright (c) Steve Scherf et al.
# Submitted via: ExactAudioCopy v0.95b3
#
DISCID=8b09de0c
DTITLE=Hinojosa, Tish - Destiny's Gate
DYEAR=1900
DGENRE=
TTITLE0=Destiny's Gate
TTITLE1=Saying You Will
TTITLE2=What More Can I Say In A Song
TTITLE3=Esperate (Wait For Me)
TTITLE4=Looking For My Love In The Pouring Rain
TTITLE5=I'm Not Through Loving You Yet
TTITLE6=Love Of Mine
TTITLE7=I Want To See You Again
TTITLE8=Noche Sin Estrellas (Night Without Stars)
TTITLE9=Yesterday's Paper
TTITLE10=Baby Believe
TTITLE11=Destiny's Gate (Spanish Version)
EXTD=
EXTT0=
EXTT1=
EXTT2=
EXTT3=
EXTT4=
EXTT5=
EXTT6=
EXTT7=
EXTT8=
EXTT9=
EXTT10=
EXTT11=
PLAYORDER=
